<svg width="733" height="732" viewBox="0 0 733 732" fill="none" xmlns="http://www.w3.org/2000/svg">
<g clip-path="url(#clip0_174_1194)">
<path d="M100.625 208.125H102.5L101.25 218.125L98.75 233.125L96.875 251.25L96.25 263.125V286.25L98.125 303.75L101.25 318.75L106.875 335.625L113.125 349.375L118.125 358.125L125 366.875L130.625 373.125L136.25 378.75L145 385.625L151.25 390L161.875 396.25L175 402.5L188.125 406.875L200 408.75L491.25 409.375L521.25 410L526.875 411.25L530.625 415.625L535.625 425L540 437.5L541.875 450V456.875L540.625 465.625L536.875 476.875L531.875 486.875L526.25 493.75L521.25 498.125L515 499.375L91.875 500H86.25L80 498.75L76.25 496.25L74.375 494.375L71.875 491.875L66.25 486.25L61.25 481.875L47.5 468.125L43.125 463.125L36.25 456.25L31.875 451.25L23.75 440.625L16.875 429.375L11.875 419.375L6.875 406.875L3.125 392.5L0.625 378.75L0 365L1.25 350L5 330.625L8.125 320L12.5 309.375L19.375 296.25L25.625 286.875L31.875 278.75L37.5 272.5L41.875 267.5L96.25 213.125L100.625 208.125Z" fill="#723499"/>
<path d="M212.5 225H646.875L651.875 226.25L657.5 230.625L697.5 270.625L703.125 277.5L708.125 283.75L714.375 293.125L721.875 307.5L726.25 319.375L730.625 335L731.875 343.125L732.5 350.625V363.125L730.625 378.75L727.5 393.75L721.875 411.875L716.875 423.125L710.625 435L704.375 443.75L697.5 452.5L690.625 460L686.25 465L673.125 478.125L668.125 482.5L661.875 488.75L656.875 493.125L646.875 502.5L640 509.375L636.25 513.75L633.893 515.164C633.28 515.532 632.5 515.09 632.5 514.375L633.75 508.75L636.875 493.75L640 470.625L640.625 463.125V448.125L638.75 426.875L634.375 405.625L628.75 388.75L623.75 378.125L616.875 366.875L609.375 356.875L602.5 349.375L597.5 344.375L586.875 336.25L575.625 329.375L562.5 322.5L550.625 318.125L541.875 315.625L537.5 315H320L211.25 314.375L207.5 311.875L203.125 305.625L198.125 295L195.625 286.875L194.375 280.625V267.5L196.875 251.875L201.25 238.75L207.5 227.5L210 225.625L212.5 225Z" fill="#723499"/>
<path d="M100.625 208.125H102.5L101.25 218.125L98.75 233.125L96.875 251.25L96.25 263.125V286.25L98.125 303.75L101.25 318.75L106.875 335.625L113.125 349.375L118.125 358.125L125 366.875L130.625 373.125L136.25 378.75L145 385.625L151.25 390L161.875 396.25L175 402.5L188.125 406.875L200 408.75L491.25 409.375L521.25 410L526.875 411.25L530.625 415.625L535.625 425L540 437.5L541.875 450V456.875L540.625 465.625L536.875 476.875L533.125 484.375L531.875 485L532.5 479.375L533.75 475.625L535 468.125L535.625 465.625V459.375L534.375 450L532.5 436.875L529.375 429.375L525.625 422.5V420.625H524.375V418.75L516.875 417.5V416.25L512.5 416.875L433.125 416.25H231.875L221.25 416.875H213.125L196.25 416.25L191.875 415L183.125 413.75L175 410L169.375 408.75L168.125 406.875L163.75 405.625L161.875 405V403.75L159.375 403.125L152.5 399.375L144.375 394.375L134.375 386.875L130 385L126.25 380.625V379.375H125V377.5L121.25 375.625V374.375H120L115.625 368.125L110 361.875L106.875 356.25L102.5 348.75L100 342.5L96.25 332.5L93.75 320.625L91.875 313.125L91.25 306.875L90 291.875L89.375 285L90 283.75L89.375 280.625V276.25L88.75 274.375L88.125 261.25L86.875 252.5V246.25L88.125 238.75L87.5 231.875L86.25 228.75L90 223.75L92.5 221.25V218.75L94.375 216.875H95.625L97.5 211.875L100.625 208.125Z" fill="#833EAA"/>
<path d="M212.5 225H646.875L651.875 226.25L657.5 230.625L697.5 270.625L703.125 277.5L708.125 283.75L714.375 293.125L719.375 302.5V305H718.125L715.625 300.625L712.5 298.125L711.25 294.375L708.75 293.125L706.25 290V288.75L703.75 287.5L701.25 284.375V283.125L698.75 281.875L696.25 278.75V277.5H695V276.25H693.75L690.625 271.875L684.375 265.625V264.375H683.125V263.125H681.875V261.25L678.125 259.375V258.125H676.875V256.875H675.625L671.25 251.875L666.25 247.5L663.75 245V243.75H662.5L656.875 236.875L651.875 233.125L648.125 231.875L621.25 231.25H535.625L498.75 231.875H456.25L398.75 232.5L346.875 231.875H278.125L218.125 231.25L208.125 231.875V233.125H206.875V234.375H205.625V230.625L208.125 226.875L212.5 225Z" fill="#833EAA"/>
<path d="M212.5 225H646.875L650.625 225.625V226.25L588.125 226.875H261.875L210 226.25L212.5 225Z" fill="#723499"/>
<path d="M175 403.125L180.625 404.375L191.25 407.5L200 408.75L491.25 409.375L521.25 410L525 410.625V411.25L521.875 411.875H287.5L203.75 411.25L194.375 410L184.375 407.5L175 403.75V403.125Z" fill="#723499"/>
<path fill-rule="evenodd" clip-rule="evenodd" d="M561.875 588.125H555L450.625 588.75L304.844 590.625H184.375L170.625 591.25V591.875V593.125L211.875 634.375L216.875 638.75L229.375 651.25L233.75 656.25L249.375 671.875L254.375 676.25L273.75 695.625L282.5 703.125L290 708.75L300 715L315.625 722.5L330.625 727.5L343.125 730L358.125 731.25H371.875L380.625 730.625L390 729.375L405 725.625L416.875 721.25L426.875 716.25L438.125 710L447.5 703.125L454.375 697.5L516.875 635L521.25 630L525 626.875L541.25 610.625L546.875 604.375L551.875 600L561.875 590L563.813 588.125H561.875Z" fill="#DFE0E0"/>
<path fill-rule="evenodd" clip-rule="evenodd" d="M354.375 0H374.375L389.375 1.25L401.875 3.75L413.125 7.5L428.75 15L440 21.875L448.75 28.75L457.5 36.25L549.375 128.125L553.125 132.5L553.75 134.375L550.625 135L523.75 136.25L488.125 136.875L431.875 138.75L391.875 140L363.125 140.625H285V140.545L249.375 141.25L189.375 143.125H166.25L170 138.125L175 133.75L183.125 125.625L187.5 120.625L193.125 115L198.125 110.625L205 103.75L209.375 98.75L272.5 35.625L279.375 30L288.75 22.5L301.875 14.375L316.25 7.5L328.125 3.75L339.375 1.25L354.375 0Z" fill="#DFE0E0"/>
<path d="M38.75 272.5L39.375 273.75L38.75 275.625H37.5V276.875H36.25L35 279.375L31.25 283.75L29.375 287.5L26.875 290V291.25H25V292.5H23.75L23.125 295.625L20.625 296.25L21.25 293.125L27.5 284.375L32.5 278.125L38.75 272.5Z" fill="#803CA7"/>
<path d="M647.5 499.375H648.75L647.5 501.875L640 509.375L636.25 513.75H634.375L635 508.125L637.5 506.875H638.75L645.625 501.25L647.5 499.375Z" fill="#803CA7"/>
<path d="M96.25 213.125L96.875 215.625L95.625 217.5L91.875 218.125L95.625 213.75L96.25 213.125ZM85 224.375L86.875 225.625L85 227.5H83.75L83.125 228.75L82.5 226.875L85 224.375ZM69.375 240L70.625 240.625L70 242.5L68.75 240.625L69.375 240ZM64.375 245L65.625 245.625V246.875L63.75 246.25L64.375 245ZM60 249.375L61.875 250.625L59.375 251.875L60 249.375Z" fill="#75369C"/>
<path d="M21.25 435H23.125L27.5 441.875L30 445L29.375 446.25L25.625 441.875L22.5 438.75L21.25 436.875V435Z" fill="#7F3CA6"/>
<path d="M15 423.125L16.875 425L20 430.625L19.375 431.875L16.25 428.125L15 423.125Z" fill="#813DA8"/>
</g>
<defs>
<clipPath id="clip0_174_1194">
<rect width="733" height="732" fill="white"/>
</clipPath>
</defs>
</svg>
