<?xml version="1.0" encoding="UTF-8"?> <svg xmlns="http://www.w3.org/2000/svg" width="1440" height="1000" viewBox="0 0 1440 1000" fill="none"><g clip-path="url(#clip0_413_59)"><path d="M-192.274 522.479C-182.966 615.501 -103.904 688.366 -7.77798 688.366C88.344 688.366 167.417 615.501 176.718 522.479C176.718 516.282 178.262 510.074 178.262 503.866C178.262 401.544 94.5481 319.382 -7.78179 319.382C-110.104 319.382 -192.277 403.096 -192.277 503.866C-192.274 508.53 -192.274 516.282 -192.274 522.479ZM-507 499.222C-507 223.26 -283.74 0 -7.77798 0C268.195 0 493 223.26 493 499.222C493 775.195 268.195 1000 -7.77798 1000C-283.736 1000 -507 775.192 -507 499.222Z" fill="#E63822"></path></g><defs><clipPath id="clip0_413_59"><rect width="1440" height="1000" fill="white"></rect></clipPath></defs></svg> 